<svg width="1080" height="1350" viewBox="0 0 1080 1350" fill="none" xmlns="http://www.w3.org/2000/svg">
<g id="running_v1_stamp">
<g id="running_v1_stamp_2">
<g id="Header Container">
<g id="bl-logo">
<g id="Burninglog">
<path d="M787.995 127.915V93.7199H800.844C803.27 93.7199 805.286 94.1095 806.892 94.8887C808.509 95.6567 809.717 96.7086 810.514 98.0444C811.323 99.3801 811.727 100.894 811.727 102.586C811.727 103.977 811.465 105.168 810.941 106.159C810.416 107.139 809.711 107.935 808.826 108.547C807.941 109.159 806.952 109.599 805.86 109.866V110.2C807.051 110.267 808.192 110.639 809.285 111.318C810.389 111.986 811.29 112.932 811.989 114.157C812.689 115.381 813.038 116.862 813.038 118.598C813.038 120.368 812.618 121.96 811.776 123.374C810.935 124.776 809.668 125.884 807.974 126.696C806.28 127.509 804.15 127.915 801.582 127.915H787.995ZM794.075 122.739H800.615C802.822 122.739 804.412 122.311 805.384 121.453C806.368 120.585 806.859 119.472 806.859 118.114C806.859 117.101 806.614 116.188 806.122 115.376C805.63 114.552 804.931 113.906 804.024 113.439C803.117 112.96 802.035 112.721 800.779 112.721H794.075V122.739ZM794.075 108.263H800.09C801.139 108.263 802.085 108.068 802.926 107.679C803.767 107.278 804.428 106.716 804.909 105.992C805.401 105.257 805.647 104.389 805.647 103.387C805.647 102.063 805.188 100.972 804.27 100.115C803.363 99.2577 802.013 98.8291 800.222 98.8291H794.075V108.263Z" fill="white"/>
<path d="M832.727 117.129V102.269H838.66V127.915H832.907V123.357H832.645C832.077 124.793 831.143 125.967 829.843 126.88C828.553 127.793 826.963 128.249 825.073 128.249C823.423 128.249 821.964 127.876 820.697 127.13C819.44 126.373 818.457 125.277 817.747 123.841C817.037 122.394 816.681 120.646 816.681 118.598V102.269H822.615V117.663C822.615 119.288 823.052 120.58 823.926 121.537C824.8 122.494 825.947 122.973 827.368 122.973C828.242 122.973 829.089 122.756 829.908 122.322C830.728 121.888 831.4 121.242 831.924 120.385C832.459 119.517 832.727 118.431 832.727 117.129Z" fill="white"/>
<path d="M843.377 127.915V102.269H849.13V106.543H849.392C849.851 105.063 850.638 103.922 851.752 103.12C852.878 102.308 854.161 101.901 855.604 101.901C855.932 101.901 856.298 101.918 856.702 101.951C857.117 101.974 857.461 102.013 857.734 102.068V107.628C857.483 107.539 857.084 107.461 856.538 107.395C856.003 107.317 855.484 107.278 854.981 107.278C853.899 107.278 852.927 107.517 852.064 107.996C851.211 108.463 850.539 109.114 850.048 109.949C849.556 110.784 849.31 111.747 849.31 112.838V127.915H843.377Z" fill="white"/>
<path d="M866.225 112.888V127.915H860.292V102.269H865.962V106.627H866.258C866.837 105.191 867.76 104.05 869.027 103.204C870.306 102.358 871.885 101.935 873.764 101.935C875.501 101.935 877.015 102.313 878.304 103.07C879.604 103.827 880.61 104.924 881.32 106.359C882.041 107.795 882.396 109.537 882.385 111.586V127.915H876.452V112.521C876.452 110.806 876.015 109.465 875.141 108.497C874.278 107.528 873.081 107.044 871.551 107.044C870.513 107.044 869.59 107.278 868.782 107.745C867.984 108.202 867.356 108.864 866.897 109.732C866.449 110.6 866.225 111.652 866.225 112.888Z" fill="white"/>
<path d="M887.032 127.915V102.269H892.965V127.915H887.032ZM890.015 98.6288C889.075 98.6288 888.267 98.3115 887.589 97.6771C886.912 97.0314 886.573 96.2578 886.573 95.3562C886.573 94.4434 886.912 93.6698 887.589 93.0353C888.267 92.3897 889.075 92.0669 890.015 92.0669C890.966 92.0669 891.774 92.3897 892.441 93.0353C893.118 93.6698 893.457 94.4434 893.457 95.3562C893.457 96.2578 893.118 97.0314 892.441 97.6771C891.774 98.3115 890.966 98.6288 890.015 98.6288Z" fill="white"/>
<path d="M903.615 112.888V127.915H897.682V102.269H903.353V106.627H903.648C904.227 105.191 905.15 104.05 906.418 103.204C907.696 102.358 909.275 101.935 911.154 101.935C912.892 101.935 914.405 102.313 915.694 103.07C916.995 103.827 918 104.924 918.71 106.359C919.431 107.795 919.786 109.537 919.775 111.586V127.915H913.842V112.521C913.842 110.806 913.405 109.465 912.531 108.497C911.668 107.528 910.471 107.044 908.942 107.044C907.904 107.044 906.98 107.278 906.172 107.745C905.374 108.202 904.746 108.864 904.287 109.732C903.839 110.6 903.615 111.652 903.615 112.888Z" fill="white"/>
<path d="M935.371 138.067C933.24 138.067 931.41 137.772 929.88 137.182C928.35 136.603 927.121 135.824 926.192 134.844C925.264 133.865 924.619 132.78 924.258 131.588L929.601 130.269C929.842 130.77 930.192 131.266 930.65 131.755C931.109 132.256 931.727 132.668 932.502 132.991C933.289 133.325 934.278 133.492 935.469 133.492C937.152 133.492 938.545 133.075 939.648 132.24C940.752 131.416 941.304 130.058 941.304 128.166V123.307H941.009C940.703 123.93 940.255 124.57 939.665 125.227C939.086 125.884 938.315 126.435 937.354 126.88C936.403 127.325 935.207 127.548 933.765 127.548C931.831 127.548 930.077 127.086 928.503 126.162C926.941 125.227 925.695 123.836 924.766 121.988C923.849 120.129 923.39 117.802 923.39 115.008C923.39 112.192 923.849 109.816 924.766 107.879C925.695 105.931 926.946 104.456 928.52 103.454C930.093 102.441 931.847 101.935 933.781 101.935C935.256 101.935 936.469 102.191 937.419 102.703C938.381 103.204 939.146 103.81 939.714 104.523C940.282 105.224 940.714 105.886 941.009 106.51H941.337V102.269H947.188V128.333C947.188 130.525 946.674 132.34 945.647 133.776C944.62 135.212 943.216 136.286 941.435 136.998C939.654 137.711 937.633 138.067 935.371 138.067ZM935.42 122.806C936.676 122.806 937.747 122.494 938.632 121.871C939.517 121.248 940.189 120.351 940.648 119.183C941.107 118.014 941.337 116.611 941.337 114.975C941.337 113.361 941.107 111.947 940.648 110.734C940.2 109.521 939.534 108.58 938.649 107.912C937.775 107.233 936.698 106.894 935.42 106.894C934.098 106.894 932.994 107.244 932.109 107.946C931.224 108.647 930.558 109.61 930.11 110.834C929.662 112.048 929.438 113.428 929.438 114.975C929.438 116.545 929.662 117.919 930.11 119.099C930.568 120.268 931.24 121.181 932.126 121.837C933.022 122.483 934.12 122.806 935.42 122.806Z" fill="white"/>
<path d="M957.817 93.7199V127.915H951.884V93.7199H957.817Z" fill="white"/>
<path d="M973.515 128.416C971.056 128.416 968.926 127.865 967.123 126.763C965.32 125.661 963.921 124.119 962.927 122.138C961.944 120.157 961.452 117.841 961.452 115.192C961.452 112.543 961.944 110.222 962.927 108.23C963.921 106.237 965.32 104.69 967.123 103.588C968.926 102.486 971.056 101.935 973.515 101.935C975.973 101.935 978.104 102.486 979.907 103.588C981.71 104.69 983.103 106.237 984.086 108.23C985.081 110.222 985.578 112.543 985.578 115.192C985.578 117.841 985.081 120.157 984.086 122.138C983.103 124.119 981.71 125.661 979.907 126.763C978.104 127.865 975.973 128.416 973.515 128.416ZM973.548 123.574C974.881 123.574 975.995 123.201 976.891 122.455C977.787 121.698 978.454 120.685 978.891 119.416C979.339 118.147 979.563 116.734 979.563 115.175C979.563 113.606 979.339 112.187 978.891 110.918C978.454 109.638 977.787 108.619 976.891 107.862C975.995 107.105 974.881 106.727 973.548 106.727C972.182 106.727 971.045 107.105 970.139 107.862C969.243 108.619 968.571 109.638 968.123 110.918C967.685 112.187 967.467 113.606 967.467 115.175C967.467 116.734 967.685 118.147 968.123 119.416C968.571 120.685 969.243 121.698 970.139 122.455C971.045 123.201 972.182 123.574 973.548 123.574Z" fill="white"/>
<path d="M1000.18 138.067C998.047 138.067 996.217 137.772 994.687 137.182C993.157 136.603 991.928 135.824 990.999 134.844C990.07 133.865 989.426 132.78 989.065 131.588L994.408 130.269C994.649 130.77 994.998 131.266 995.457 131.755C995.916 132.256 996.533 132.668 997.309 132.991C998.096 133.325 999.085 133.492 1000.28 133.492C1001.96 133.492 1003.35 133.075 1004.46 132.24C1005.56 131.416 1006.11 130.058 1006.11 128.166V123.307H1005.82C1005.51 123.93 1005.06 124.57 1004.47 125.227C1003.89 125.884 1003.12 126.435 1002.16 126.88C1001.21 127.325 1000.01 127.548 998.571 127.548C996.637 127.548 994.884 127.086 993.31 126.162C991.748 125.227 990.502 123.836 989.573 121.988C988.655 120.129 988.196 117.802 988.196 115.008C988.196 112.192 988.655 109.816 989.573 107.879C990.502 105.931 991.753 104.456 993.327 103.454C994.9 102.441 996.654 101.935 998.588 101.935C1000.06 101.935 1001.28 102.191 1002.23 102.703C1003.19 103.204 1003.95 103.81 1004.52 104.523C1005.09 105.224 1005.52 105.886 1005.82 106.51H1006.14V102.269H1011.99V128.333C1011.99 130.525 1011.48 132.34 1010.45 133.776C1009.43 135.212 1008.02 136.286 1006.24 136.998C1004.46 137.711 1002.44 138.067 1000.18 138.067ZM1000.23 122.806C1001.48 122.806 1002.55 122.494 1003.44 121.871C1004.32 121.248 1005 120.351 1005.46 119.183C1005.91 118.014 1006.14 116.611 1006.14 114.975C1006.14 113.361 1005.91 111.947 1005.46 110.734C1005.01 109.521 1004.34 108.58 1003.46 107.912C1002.58 107.233 1001.51 106.894 1000.23 106.894C998.905 106.894 997.801 107.244 996.916 107.946C996.031 108.647 995.364 109.61 994.916 110.834C994.468 112.048 994.244 113.428 994.244 114.975C994.244 116.545 994.468 117.919 994.916 119.099C995.375 120.268 996.047 121.181 996.932 121.837C997.828 122.483 998.926 122.806 1000.23 122.806Z" fill="white"/>
</g>
</g>
</g>
<g id="Stats Container">
<text x="128.896" y="1175.09" fill="white" font-family="Inter" font-size="36" font-weight="bold">Time</text>
<text id="bl-duration" x="87.406" y="1246.45" fill="white" font-family="Inter" font-size="48" font-weight="bold">1:01:53</text>
<text x="339.602" y="1175.09" fill="white" font-family="Inter" font-size="36" font-weight="bold">Distance</text>
<text id="bl-distance" x="331.088" y="1246.45" fill="white" font-family="Inter" font-size="48" font-weight="bold">5.10Km</text>
<text x="619.179" y="1175.09" fill="white" font-family="Inter" font-size="36" font-weight="bold">Pace</text>
<text id="bl-pace" x="599.896" y="1246.45" fill="white" font-family="Inter" font-size="48" font-weight="bold">5'52''</text>
<text x="871.018" y="1175.09" fill="white" font-family="Inter" font-size="36" font-weight="bold">kcal</text>
<text id="bl-calories" x="860.195" y="1246.45" fill="white" font-family="Inter" font-size="48" font-weight="bold">382</text>
</g>
</g>
</g>
</svg>
